<svg xmlns="http://www.w3.org/2000/svg" width="45" height="45" viewBox="0 0 45 45">
  <g id="Group_4742" data-name="Group 4742" transform="translate(-11 -10)">
    <g id="icon_toast_notification" transform="translate(11 10)">
      <rect id="Rectangle_1980" data-name="Rectangle 1980" width="45" height="45" rx="22.5" fill="#29b0ff"/>
    </g>
    <path id="Path_1531" data-name="Path 1531"
          d="M4.6-5.753a2.651,2.651,0,0,1-.955-.177,2.652,2.652,0,0,1-.818-.491,2.514,2.514,0,0,1-.573-.736,1.963,1.963,0,0,1-.218-.914,1.984,1.984,0,0,1,.2-.9,2.116,2.116,0,0,1,.552-.7A2.545,2.545,0,0,1,3.6-10.11a3.087,3.087,0,0,1,1-.157,3.489,3.489,0,0,1,1.05.15,2.657,2.657,0,0,1,.832.423,1.931,1.931,0,0,1,.552.661,1.912,1.912,0,0,1,.2.88,2.174,2.174,0,0,1-.211.948,2.333,2.333,0,0,1-.58.764,2.823,2.823,0,0,1-.845.5A2.742,2.742,0,0,1,4.6-5.753ZM.387,9.71,2.2,9.083a.966.966,0,0,0,.416-.245.623.623,0,0,0,.157-.45V-.3A.729.729,0,0,0,2.6-.8a1.231,1.231,0,0,0-.511-.314L.428-1.758v-.982L6.85-3.408v11.8a.608.608,0,0,0,.164.45,1.04,1.04,0,0,0,.4.245l1.759.627v1.023H.387Z"
          transform="translate(28.723 32.267)" fill="#fff"/>
  </g>
</svg>
